# xmcd
#
# Track frame offsets:
#        150
#        15080
#        36636
#        55472
#        69127
#        83846
#
# Disc length: 1371 seconds
#
# Revision: 0
# Processed by: cddbd v1.5.1PL2 Copyright (c) Steve Scherf et al.
# Submitted via: ExactAudioCopy v0.95b3
#
DISCID=42055906
DTITLE=Various Artist - NISSAN CM MUSIC COLLECTION
DYEAR=2005
DGENRE=Rock
TTITLE0=OPEN ARMS - Journey
TTITLE1=MORE THAN A FEELING - Boston
TTITLE2=DON'T STOP BELIEVIN' - Journey
TTITLE3=WE WILL ROCK YOU - Keiko Lee
TTITLE4=Longer - Dan Fogelberg
TTITLE5=We're All Alone - Boz Scaggs
EXTD=
EXTT0=
EXTT1=
EXTT2=
EXTT3=
EXTT4=
EXTT5=
PLAYORDER=
